# xmcd
#
# Track frame offsets:
#	150
#	13635
#	28731
#	42737
#	55412
#	68948
#	80558
#	96717
#	109386
#	122803
#	136664
#	149641
#	160646
#	172519
#	184979
#	199440
#
# Disc length: 2878 seconds
#
# Revision: 1
# Processed by: cddbd v1.5.1PL2 Copyright (c) Steve Scherf et al.
# Submitted via: audiograbber 1.83.01
#
DISCID=f00b3c10
DTITLE=Bjøro Håland - My Nashville Album
DYEAR=2004
DGENRE=Country
TTITLE0=Catfish Joe
TTITLE1=Storms never last
TTITLE2=Nickels and Dimes
TTITLE3=If I can't have all of you
TTITLE4=Just call me lonesome
TTITLE5=Someday my day will come
TTITLE6=The Arizona whiz
TTITLE7=I'll go somewhere and sing my song again
TTITLE8=What can I do to get me back on your mind again
TTITLE9=I want you back again
TTITLE10=I've already loved you in my mind
TTITLE11=Am I that easy to forget
TTITLE12=Blue Canadian Rockies
TTITLE13=Gulf of Mexico
TTITLE14=Lily's white lies
TTITLE15=Melody man
EXTD=
EXTT0=
EXTT1=
EXTT2=
EXTT3=
EXTT4=
EXTT5=
EXTT6=
EXTT7=
EXTT8=
EXTT9=
EXTT10=
EXTT11=
EXTT12=
EXTT13=
EXTT14=
EXTT15=
PLAYORDER=
